<?xml version="1.0" standalone="no"?>
<!DOCTYPE svg PUBLIC "-//W3C//DTD SVG 20010904//EN"
 "http://www.w3.org/TR/2001/REC-SVG-20010904/DTD/svg10.dtd">
<svg version="1.0" xmlns="http://www.w3.org/2000/svg"
 width="512.000000pt" height="512.000000pt" viewBox="0 0 512.000000 512.000000"
 preserveAspectRatio="xMidYMid meet">

<g transform="translate(0.000000,512.000000) scale(0.100000,-0.100000)"
fill="#000000" stroke="none">
<path d="M2390 5114 c-273 -21 -586 -95 -830 -199 -300 -126 -601 -334 -836
-576 -394 -407 -626 -893 -705 -1479 -17 -122 -17 -478 0 -600 79 -583 310
-1068 701 -1474 983 -1018 2597 -1048 3614 -66 142 137 247 264 358 430 95
143 217 380 267 520 282 788 184 1621 -270 2304 -410 618 -1046 1016 -1789
1121 -107 15 -410 26 -510 19z m789 -1300 c19 -25 21 -40 21 -194 0 -226 11
-213 -192 -220 -160 -6 -191 -13 -231 -58 -38 -42 -46 -90 -47 -279 l0 -183
218 0 219 0 23 -25 24 -25 -23 -198 c-13 -108 -28 -205 -33 -215 -16 -31 -54
-37 -244 -37 l-184 0 0 -534 c0 -473 -2 -536 -16 -550 -13 -14 -48 -16 -224
-16 -203 0 -209 1 -224 22 -13 18 -14 88 -9 549 l6 528 -155 3 c-214 4 -198
-15 -198 249 l0 208 26 20 c24 19 40 21 169 21 l142 0 6 233 c7 260 20 339 79
450 43 81 137 174 213 211 109 53 178 64 407 65 l207 1 20 -26z"/>
</g>
</svg>
