<?xml version="1.0" standalone="no"?>
<!DOCTYPE svg PUBLIC "-//W3C//DTD SVG 20010904//EN"
 "http://www.w3.org/TR/2001/REC-SVG-20010904/DTD/svg10.dtd">
<svg version="1.0" xmlns="http://www.w3.org/2000/svg"
 width="512.000000pt" height="512.000000pt" viewBox="0 0 512.000000 512.000000"
 preserveAspectRatio="xMidYMid meet">

<g transform="translate(0.000000,512.000000) scale(0.100000,-0.100000)"
fill="#000000" stroke="none">
<path d="M2340 5109 c-387 -33 -783 -163 -1114 -366 -322 -198 -630 -504 -840
-833 -63 -99 -185 -349 -231 -475 -51 -138 -100 -336 -126 -506 -29 -189 -31
-524 -5 -704 82 -566 328 -1067 713 -1453 l92 -92 1731 0 1731 0 92 92 c387
387 636 897 713 1458 21 152 24 491 5 630 -65 479 -221 868 -499 1240 -99 132
-337 376 -462 472 -525 404 -1156 592 -1800 537z m955 -1298 c252 -84 432
-264 516 -516 24 -70 24 -70 27 -701 2 -526 0 -643 -12 -702 -61 -292 -277
-517 -570 -592 -75 -19 -110 -20 -696 -20 -586 0 -621 1 -696 20 -291 75 -508
299 -569 588 -21 98 -21 1246 0 1344 31 151 97 270 210 383 84 84 154 131 256
172 127 51 137 52 824 50 l640 -2 70 -24z"/>
<path d="M1923 3566 c-181 -44 -334 -202 -372 -384 -7 -35 -11 -246 -11 -625
0 -478 2 -582 15 -631 44 -168 153 -291 320 -357 l60 -24 588 -3 c382 -2 608
1 645 8 76 14 186 67 244 119 56 50 107 125 139 206 l24 60 3 590 c2 415 0
608 -8 650 -37 191 -197 354 -388 394 -78 16 -1190 14 -1259 -3z m1392 -206
c17 -10 41 -38 54 -60 60 -107 -19 -240 -141 -240 -59 0 -98 19 -132 63 -51
66 -46 144 11 208 19 21 49 43 67 49 41 12 103 4 141 -20z m-600 -155 c183
-46 353 -182 433 -345 55 -111 72 -183 72 -300 0 -116 -17 -188 -72 -300 -33
-69 -57 -101 -127 -170 -136 -134 -271 -190 -461 -190 -195 0 -326 55 -465
195 -140 139 -195 270 -195 465 0 116 17 188 72 300 58 119 169 230 288 288
47 23 110 48 140 56 74 20 240 20 315 1z"/>
<path d="M2443 2946 c-104 -34 -204 -123 -251 -224 -24 -51 -27 -69 -27 -162
0 -98 2 -109 33 -171 41 -85 128 -168 209 -200 46 -19 77 -23 153 -23 76 0
107 4 153 23 81 32 168 115 209 200 31 62 33 73 33 171 0 99 -2 110 -32 171
-40 81 -121 160 -200 197 -70 32 -210 41 -280 18z"/>
</g>
</svg>
